<?xml version="1.0" encoding="utf-8"?>
<!-- Generator: Adobe Illustrator 12.0.0, SVG Export Plug-In . SVG Version: 6.00 Build 51448)  -->
<!DOCTYPE svg PUBLIC "-//W3C//DTD SVG 1.1//EN" "http://www.w3.org/Graphics/SVG/1.1/DTD/svg11.dtd" [
	<!ENTITY ns_svg "http://www.w3.org/2000/svg">
	<!ENTITY ns_xlink "http://www.w3.org/1999/xlink">
]>
<svg  version="1.1" id="Layer_1" xmlns="&ns_svg;" xmlns:xlink="&ns_xlink;" width="173.976" height="61.759"
	 viewBox="0 0 173.976 61.759" overflow="visible" enable-background="new 0 0 173.976 61.759" xml:space="preserve">
<g>
	<path fill-rule="evenodd" clip-rule="evenodd" fill="#6A94C3" d="M168.851,60.051h4.337v-5.52
		C172.137,56.634,170.691,58.474,168.851,60.051L168.851,60.051z M173.188,48.093V19.447c-0.132,0.132-0.395,0.263-0.657,0.395
		c-2.365,1.708-5.388,1.577-5.388,1.577v10.38l4.994,4.074l-4.994,3.941v14.061C167.143,53.875,170.428,52.036,173.188,48.093
		L173.188,48.093z M149.798,48.619V27.2l-6.57,2.891c-0.263,0.657-1.577,4.073-1.314,8.935c0.264,4.205,2.629,9.199,4.337,11.301
		L149.798,48.619L149.798,48.619z M173.976,61.759H0.131v-1.708h141.52c-1.708-1.446-3.416-3.286-4.73-5.388
		c-2.496-3.942-3.548-8.41-3.416-13.271c0.132-9.461,7.227-17.74,15.505-20.762c0.921-0.394,1.314-0.657,2.76-0.788
		c-0.657,0.394-1.445,1.052-2.365,1.577c-2.628,1.839-4.861,5.125-5.781,7.884l9.066-4.073l6.702-3.022v22.207l-12.747,6.438
		c1.446,1.972,5.913,4.993,9.725,5.52c6.438,0.657,10.117-2.103,10.117-2.103V39.815l-4.992-3.941l4.992-4.074v-10.38
		c-2.628-0.263-5.913-1.183-7.884-1.708c-2.891-0.657-12.352-3.285-13.797-3.548c-1.577-0.263-3.417-0.131-4.468,0.789
		c-1.183,1.051-1.84,2.759-1.313,4.336c0.263,0.92,0.788,1.446,1.313,1.971c0,0-0.525,0-1.576-0.657
		c-1.709-1.051-3.154-3.154-3.286-5.781c-0.263-3.286,1.183-6.439,3.942-8.41c2.496-1.577,5.256-2.628,8.409-2.233
		c4.73,0.788,11.038,3.416,16.557,4.73c2.234,0.525,3.942,0.657,5.388-0.263c0.788-0.395,1.972-1.84,0.92-3.548
		c-1.183-1.971-3.416-1.971-5.387-2.365c1.707-0.394,2.103-0.394,3.284-0.263c1.314,0.131,3.022,0.657,4.6,1.708V0h0.788V61.759
		L173.976,61.759z M73.979,46.123c-3.153,0-5.782-2.365-5.782-6.176c0-3.417,2.233-6.045,5.65-6.045
		c1.445,0,2.365,0.657,2.628,0.788l0.263-0.657h0.526l0.919,3.022l-0.526,0.263c-0.92-1.84-2.233-2.628-3.811-2.628
		c-1.84,0-3.679,1.577-3.679,4.73c0,4.074,1.971,5.65,4.468,5.65c2.102,0,3.154-1.313,3.417-1.576l0.394,0.263
		C78.315,44.02,77.133,46.123,73.979,46.123L73.979,46.123z M101.574,45.597v2.365c0,0.788,0.263,1.051,0.92,1.051v0.395h-3.548
		v-0.395c0.394,0,0.657-0.132,0.788-0.263c0.132-0.132,0.263-0.395,0.263-1.051v-7.097c0-0.656-0.131-0.656-1.051-0.788V39.42
		l2.102-1.051h0.526v0.656c0.657-0.394,1.313-0.656,2.234-0.656c1.444,0,2.89,1.051,2.89,4.205c0,2.102-1.051,3.679-3.021,3.679
		C102.362,46.253,101.706,45.597,101.574,45.597L101.574,45.597z M101.574,44.808c0.263,0.263,0.788,0.525,1.445,0.525
		c1.183,0,1.971-0.92,1.971-2.891c0-2.365-0.788-3.285-1.971-3.285c-0.657,0-1.183,0.395-1.445,0.526V44.808L101.574,44.808z
		 M124.043,30.354l-0.395-0.263c-0.263,0.263-1.051,1.445-2.365,1.445c-1.708,0-2.496-1.314-2.496-3.022c0-0.525,0-0.789,0-0.92
		h4.993c0-0.919-0.525-3.153-3.285-3.153c-1.972,0-3.548,1.577-3.548,3.942c0,2.365,1.708,3.942,3.942,3.942
		C122.729,32.326,123.781,31.011,124.043,30.354L124.043,30.354z M122.073,26.938h-3.285c0.131-0.789,0.657-1.971,1.708-1.971
		S122.073,26.149,122.073,26.938L122.073,26.938z M47.699,30.354l-0.395-0.263c-0.263,0.263-1.051,1.445-2.365,1.445
		c-1.708,0-2.496-1.314-2.496-3.022c0-0.525,0-0.789,0-0.92h4.993c0-0.919-0.526-3.153-3.285-3.153
		c-1.971,0-3.548,1.577-3.548,3.942c0,2.365,1.708,3.942,3.942,3.942C46.385,32.326,47.436,31.011,47.699,30.354L47.699,30.354z
		 M45.728,26.938h-3.153c0-0.789,0.525-1.971,1.708-1.971C45.202,24.966,45.728,26.149,45.728,26.938L45.728,26.938z M26.543,30.354
		l-0.526-0.263c-0.131,0.263-0.919,1.445-2.365,1.445c-1.577,0-2.496-1.314-2.496-3.022c0-0.525,0-0.789,0-0.92h4.993
		c0-0.919-0.526-3.153-3.285-3.153c-1.971,0-3.417,1.577-3.417,3.942c0,2.365,1.577,3.942,3.811,3.942
		C25.098,32.326,26.28,31.011,26.543,30.354L26.543,30.354z M24.44,26.938h-3.154c0-0.789,0.526-1.971,1.708-1.971
		C24.046,24.966,24.44,26.149,24.44,26.938L24.44,26.938z M129.431,40.34c-0.263,0.657-1.577,4.336-2.234,5.782
		c-1.051,3.153-2.496,3.416-3.811,3.416c-0.92,0-1.708-0.395-1.708-1.183c0-0.394,0.395-0.656,0.788-0.656
		c0.395,0,0.658,0.263,0.789,0.525c0.263,0.263,0.394,0.525,0.92,0.525c0.788,0,1.576-0.788,2.233-2.234l0.132-0.394l-2.104-5.65
		c-0.525-1.314-0.788-1.446-1.576-1.577V38.5h4.073v0.395l-0.394,0.131c-0.395,0.132-0.657,0.132-0.657,0.526
		c0,0.132,0,0.263,0.131,0.525l1.313,3.811c0,0,1.314-3.548,1.314-3.679c0.132-0.263,0.132-0.395,0.132-0.657
		s-0.132-0.526-0.657-0.526l-0.394-0.131V38.5h3.153v0.395C129.957,39.026,129.694,39.42,129.431,40.34L129.431,40.34z
		 M64.124,20.762c-1.051,0-1.314,0.395-1.314,0.657s0.131,0.525,0.263,0.788l2.365,4.336c0,0,2.103-3.942,2.365-4.205
		c0.131-0.394,0.263-0.657,0.263-0.919s-0.263-0.657-1.313-0.657v-0.395h3.678v0.395c-1.051,0.132-1.313,0.525-1.576,1.051
		L65.832,27.2v2.759c0,1.183,0.263,1.446,1.577,1.708v0.396h-4.731v-0.396c0.92-0.131,1.446-0.525,1.446-1.445v-2.365l-3.154-5.782
		c-0.525-1.051-0.789-1.314-1.577-1.314v-0.395h4.73V20.762L64.124,20.762z M39.289,21.813v10.25H38.5l-7.096-10.25v8.542
		c0,0.788,0.394,1.051,1.314,1.313h0.131v0.396h-3.548v-0.396c1.051-0.131,1.314-0.525,1.314-1.445v-8.016
		c0-0.525-0.131-0.92-0.394-1.051c-0.132-0.263-0.395-0.263-0.92-0.395v-0.395h3.285L38.5,29.04v-6.833
		c0-0.525-0.131-0.92-0.394-1.183c-0.263-0.131-0.394-0.131-1.051-0.263v-0.395h3.548v0.395
		C39.683,20.894,39.289,21.156,39.289,21.813L39.289,21.813z M10.38,23.127c-1.051-1.577-1.313-2.103-3.022-2.103H6.307v9.33
		c0,0.919,0.394,1.183,1.445,1.313v0.396H3.154v-0.396c0.919-0.131,1.445-0.394,1.445-1.313v-9.33H3.548
		c-1.577,0-1.971,0.657-3.154,2.103L0,22.996l1.314-3.022h0.525c0.131,0.394,0.394,0.394,0.92,0.394h5.519
		c0.263,0,0.657-0.131,0.789-0.394h0.525l1.183,3.022L10.38,23.127L10.38,23.127z M100.391,23.127
		c-1.052-1.577-1.445-2.103-3.153-2.103h-0.92v9.33c0,0.919,0.394,1.183,1.445,1.313v0.396h-4.73v-0.396
		c1.051-0.131,1.445-0.394,1.445-1.313v-9.33h-1.052c-1.576,0-1.971,0.657-3.021,2.103l-0.395-0.131l1.313-3.022h0.526
		c0.132,0.394,0.395,0.394,0.92,0.394h5.519c0.263,0,0.657-0.131,0.788-0.394h0.395l1.313,3.022L100.391,23.127L100.391,23.127z
		 M115.108,45.991v-0.525c-0.131,0-0.263,0-0.395,0c-0.394,0-0.788-0.132-0.788-0.789v-4.073c0-1.445-1.183-2.233-3.022-2.233
		c-1.971,0-3.021,0.788-3.021,1.708c0,0.395,0.263,0.788,0.788,0.788c0.394,0,0.657-0.263,0.788-0.525l0.132-0.525
		c0.263-0.525,0.525-0.92,1.313-0.92c0.921,0,1.445,0.525,1.445,1.183v1.314c-0.657,0.131-1.445,0.263-2.102,0.525
		c-1.314,0.263-2.76,0.92-2.76,2.365c0,1.051,0.788,1.84,2.103,1.84c1.313,0,2.234-0.657,2.759-0.92
		c0.132,0.657,0.657,0.92,1.709,0.92C114.583,46.123,114.977,45.991,115.108,45.991L115.108,45.991z M112.348,42.049v2.496
		c-0.394,0.131-1.182,0.657-1.839,0.657s-1.183-0.395-1.183-1.183c0-1.183,1.183-1.577,1.84-1.708
		C111.56,42.18,111.955,42.18,112.348,42.049L112.348,42.049z M127.854,32.326c-1.183,0-1.708-0.526-1.971-0.658l-0.132,0.526
		h-0.657l-0.131-2.498h0.395c0.263,1.183,1.051,1.971,2.365,1.971c0.919,0,1.313-0.657,1.313-1.182c0-0.526-0.395-1.051-1.313-1.314
		l-0.789-0.394c-1.051-0.394-1.84-0.92-1.84-2.234s1.052-2.103,2.497-2.103c0.92,0,1.445,0.263,1.708,0.394l0.132-0.394h0.525
		l0.263,2.234h-0.525c-0.132-0.92-0.788-1.708-1.971-1.708c-0.789,0-1.446,0.395-1.446,1.051c0,0.657,0.395,1.051,1.314,1.314
		l1.051,0.394c1.709,0.658,1.972,1.577,1.972,2.366C130.614,31.273,129.562,32.326,127.854,32.326L127.854,32.326z M115.633,31.273
		c-0.131-0.131-0.263-0.263-0.263-0.788v-4.074c0-1.445-0.92-1.971-1.839-1.971c-0.921,0-1.708,0.525-2.365,0.92
		c-0.395-0.657-1.052-0.92-1.709-0.92c-0.92,0-1.445,0.394-2.103,0.789v-0.789h-0.525l-2.103,1.314v0.394
		c0.92,0,1.052,0.132,1.052,0.789v3.417c0,0.657-0.132,0.788-0.263,1.051c-0.132,0.131-0.395,0.262-0.789,0.262v0.396h3.548v-0.396
		c-0.656,0-0.92-0.262-0.92-1.051v-4.73c0.526-0.263,1.052-0.525,1.445-0.525c0.526,0,0.92,0.263,0.92,0.92v4.336
		c0,0.789-0.263,0.92-0.92,1.051v0.396h3.548v-0.396c-0.524-0.131-0.657-0.131-0.788-0.394c-0.131-0.131-0.131-0.263-0.131-0.788
		v-4.074c0-0.131,0-0.263-0.132-0.525c0.526-0.263,1.051-0.525,1.576-0.525c0.526,0,0.921,0.263,0.921,0.92v4.336
		c0,0.789-0.263,0.92-0.921,1.051v0.396h3.549v-0.396C115.897,31.537,115.633,31.537,115.633,31.273L115.633,31.273z M97.895,45.203
		c-0.132-0.132-0.132-0.264-0.132-0.789V40.34c0-1.445-1.052-1.971-1.971-1.971c-0.921,0-1.709,0.525-2.366,0.92
		c-0.394-0.657-1.051-0.92-1.708-0.92c-0.788,0-1.445,0.394-2.103,0.788V38.37H89.09l-2.103,1.314v0.394
		c0.92,0,1.052,0.132,1.052,0.788v3.417c0,0.656-0.132,0.788-0.264,0.92c-0.131,0.263-0.395,0.263-0.788,0.395v0.394h3.548v-0.394
		c-0.657-0.132-0.92-0.264-0.92-1.052v-4.73c0.526-0.263,1.052-0.657,1.445-0.657c0.525,0,1.052,0.395,1.052,1.052v4.336
		c0,0.788-0.263,0.92-0.92,1.052v0.394h3.416v-0.394c-0.394-0.132-0.656-0.264-0.788-0.395c-0.132-0.132-0.132-0.264-0.132-0.789
		V40.34c0-0.131,0-0.394,0-0.525c0.395-0.263,1.052-0.657,1.445-0.657c0.526,0,0.921,0.395,0.921,1.052v4.336
		c0,0.788-0.263,0.92-0.921,1.052v0.394h3.549v-0.394C98.158,45.465,98.026,45.333,97.895,45.203L97.895,45.203z M103.15,30.617
		c0,0.789,0.132,1.051,0.789,1.051v0.396h-3.548v-0.396c0.525,0,0.656-0.131,0.788-0.262c0.263-0.263,0.263-0.395,0.263-1.051
		v-3.417c0-0.657-0.131-0.789-1.051-0.789v-0.394l2.233-1.314h0.525V30.617L103.15,30.617z M102.231,22.47
		c-0.525,0-1.052-0.395-1.052-1.051c0-0.525,0.526-0.92,1.052-0.92s1.051,0.395,1.051,0.92
		C103.282,22.076,102.756,22.47,102.231,22.47L102.231,22.47z M119.838,45.991v-0.394c0.657-0.132,0.92-0.264,0.92-1.052v-4.336
		c0-0.657-0.395-1.052-0.92-1.052c-0.657,0-1.051,0.395-1.577,0.657v4.73c0,0.788,0.263,0.92,0.92,1.052v0.394h-3.548v-0.394
		c0.395-0.132,0.657-0.132,0.789-0.395c0.131-0.132,0.262-0.264,0.262-0.92v-3.417c0-0.656-0.131-0.788-1.051-0.788v-0.394
		l2.103-1.314h0.525v0.788c0.657-0.395,1.184-0.788,2.234-0.788c0.92,0,1.971,0.525,1.971,1.971v4.073c0,0.525,0,0.657,0.132,0.789
		c0.131,0.131,0.263,0.263,0.788,0.395v0.394H119.838L119.838,45.991z M15.243,32.063v-0.396c0.657-0.131,0.919-0.262,0.919-1.051
		v-4.205c0-0.657-0.263-1.051-1.051-1.051c-0.526,0-1.051,0.263-1.445,0.525v4.73c0,0.789,0.263,1.051,0.919,1.051v0.396h-3.547
		v-0.396c0.395,0,0.657-0.131,0.788-0.262c0.132-0.263,0.263-0.395,0.263-1.051v-7.753c0-0.657-0.131-0.657-1.051-0.657v-0.525
		l2.103-1.052h0.525v4.862c0.657-0.395,1.314-0.789,2.234-0.789s1.971,0.657,1.971,1.971v4.074c0,0.525,0,0.657,0.131,0.788
		c0.131,0.263,0.263,0.263,0.789,0.394v0.396H15.243L15.243,32.063z M86.331,42.18c0-2.233-1.445-3.811-3.679-3.811
		s-3.679,1.577-3.679,3.942c0,2.233,1.577,3.811,3.679,3.811c1.182,0,2.103-0.395,2.891-1.184
		C86.068,44.283,86.331,43.363,86.331,42.18L86.331,42.18z M84.623,42.049c0,1.708-0.394,3.548-1.971,3.548
		c-1.446,0-1.971-1.84-1.971-3.417c0-1.708,0.657-3.285,1.971-3.285C84.097,38.895,84.623,40.472,84.623,42.049L84.623,42.049z
		 M75.162,28.383c0-2.366-1.445-3.942-3.679-3.942s-3.679,1.577-3.679,4.073c0,2.103,1.577,3.812,3.679,3.812
		c1.183,0,2.103-0.526,2.891-1.315C74.899,30.485,75.162,29.565,75.162,28.383L75.162,28.383z M73.454,28.251
		c0,1.577-0.394,3.416-1.971,3.416c-1.446,0-1.971-1.839-1.971-3.284c0-1.84,0.657-3.417,1.971-3.417
		C72.928,24.966,73.454,26.543,73.454,28.251L73.454,28.251z M85.411,32.063v-0.396c0.657,0,0.92-0.262,0.92-0.525
		c0-0.263-0.131-0.394-0.263-0.657l-1.577-1.971l-0.526,0.526v1.445c0,0.92,0.263,1.182,0.789,1.182v0.396h-3.417v-0.396
		c0.525-0.131,0.788-0.262,0.919-0.525c0,0,0.132-0.394,0.132-0.919v-7.622c0-0.657-0.132-0.789-1.051-0.789v-0.394l2.102-1.052
		h0.526v7.884l1.839-1.84c0.395-0.263,0.395-0.525,0.395-0.657c0-0.263-0.131-0.525-1.051-0.525v-0.395h3.679v0.395
		c-0.656,0-1.052,0.131-1.446,0.657l-1.708,1.577c0,0,1.708,2.233,2.498,3.286c0.524,0.525,0.919,0.919,1.444,0.919v0.396H85.411
		L85.411,32.063z M80.681,26.149c-0.526,0-0.657-0.525-1.051-0.525c-0.263,0-0.657,0.131-1.051,0.525v4.468
		c0,0.657,0.131,0.92,0.919,1.051h0.263v0.396h-3.942v-0.396c0.657-0.131,0.789-0.262,0.919-0.525c0.132,0,0.132-0.263,0.132-0.788
		v-3.548c0-0.657-0.132-0.789-0.657-0.789h-0.394v-0.394l1.839-1.183h0.789v1.183c0.789-0.789,1.577-1.183,2.103-1.183
		c0.525,0,0.92,0.394,0.92,0.92C81.469,25.755,81.206,26.149,80.681,26.149L80.681,26.149z M57.554,26.281l-1.577,5.782h-0.92
		L53.218,27.2l-1.84,4.863h-0.92l-1.971-5.914c-0.395-0.919-0.525-1.051-1.051-1.183v-0.263h3.548v0.263
		c-0.526,0.131-0.92,0.131-0.92,0.657c0,0.131,0.131,0.263,0.131,0.394c0.131,0.526,1.314,4.074,1.314,4.074
		s0.919-3.022,1.051-3.285c0.131-0.395,0.131-0.657,0.131-0.92c0-0.525-0.263-0.789-1.051-0.92v-0.263h3.68v0.263
		c-0.526,0.131-1.051,0.131-1.051,0.657c0,0,0.131,0.263,0.131,0.394c0.263,0.657,1.445,4.074,1.445,4.074l1.051-3.811
		c0.131-0.263,0.131-0.526,0.131-0.657c0-0.394-0.263-0.526-1.051-0.657v-0.263h2.891v0.263
		C57.948,25.098,57.817,25.361,57.554,26.281L57.554,26.281z"/>
</g>
</svg>
